<svg width="80" height="20" viewBox="0 0 80 20" fill="none" xmlns="http://www.w3.org/2000/svg">
<path fill-rule="evenodd" clip-rule="evenodd" d="M10.8518 0C5.33853 0 0.881592 4.58333 0.881592 10.2535C0.881592 14.786 3.73731 18.6227 7.69894 19.9806C8.19424 20.0827 8.37567 19.76 8.37567 19.4885C8.37567 19.2508 8.35935 18.436 8.35935 17.5871C5.58588 18.1983 5.00833 16.3648 5.00833 16.3648C4.56261 15.1765 3.9022 14.871 3.9022 14.871C2.99445 14.2429 3.96833 14.2429 3.96833 14.2429C4.97527 14.3108 5.50363 15.2954 5.50363 15.2954C6.39486 16.8571 7.83098 16.4158 8.40873 16.1442C8.49118 15.4821 8.75547 15.0237 9.03608 14.7692C6.82404 14.5315 4.49669 13.6488 4.49669 9.71021C4.49669 8.58979 4.89261 7.67312 5.51996 6.96021C5.42098 6.70563 5.07424 5.65292 5.61914 4.24396C5.61914 4.24396 6.46098 3.97229 8.35914 5.29646C9.17181 5.07201 10.0099 4.95784 10.8518 4.95687C11.6936 4.95687 12.5518 5.07583 13.3442 5.29646C15.2426 3.97229 16.0844 4.24396 16.0844 4.24396C16.6293 5.65292 16.2824 6.70563 16.1834 6.96021C16.8273 7.67312 17.2069 8.58979 17.2069 9.71021C17.2069 13.6488 14.8795 14.5144 12.651 14.7692C13.0142 15.0917 13.3277 15.7027 13.3277 16.6704C13.3277 18.0454 13.3114 19.149 13.3114 19.4883C13.3114 19.76 13.493 20.0827 13.9881 19.9808C17.9498 18.6225 20.8055 14.786 20.8055 10.2535C20.8218 4.58333 16.3485 0 10.8518 0Z" fill="#24292F"/>
<path d="M35.3637 7.5C35.2387 7.11742 35.0739 6.77462 34.8693 6.47159C34.6686 6.16477 34.4281 5.90341 34.1478 5.6875C33.8712 5.47159 33.5568 5.30682 33.2046 5.19318C32.8523 5.07955 32.4659 5.02273 32.0455 5.02273C31.3561 5.02273 30.7292 5.20076 30.1648 5.55682C29.6004 5.91288 29.1515 6.4375 28.8182 7.13068C28.4849 7.82386 28.3182 8.67424 28.3182 9.68182C28.3182 10.6894 28.4868 11.5398 28.8239 12.233C29.161 12.9261 29.6175 13.4508 30.1932 13.8068C30.769 14.1629 31.4167 14.3409 32.1364 14.3409C32.8031 14.3409 33.3902 14.1989 33.8978 13.9148C34.4091 13.6269 34.8068 13.2216 35.0909 12.6989C35.3788 12.1723 35.5228 11.553 35.5228 10.8409L35.9546 10.9318H32.4546V9.68182H36.8864V10.9318C36.8864 11.8902 36.6818 12.7235 36.2728 13.4318C35.8675 14.1402 35.3068 14.6894 34.5909 15.0795C33.8788 15.4659 33.0606 15.6591 32.1364 15.6591C31.1061 15.6591 30.2008 15.4167 29.4205 14.9318C28.644 14.447 28.0379 13.7576 27.6023 12.8636C27.1705 11.9697 26.9546 10.9091 26.9546 9.68182C26.9546 8.76136 27.0777 7.93371 27.3239 7.19886C27.5739 6.46023 27.9262 5.83144 28.3807 5.3125C28.8353 4.79356 29.3731 4.39583 29.9943 4.11932C30.6156 3.8428 31.2993 3.70455 32.0455 3.70455C32.6591 3.70455 33.2311 3.79735 33.7614 3.98295C34.2955 4.16477 34.7709 4.42424 35.1875 4.76136C35.608 5.0947 35.9584 5.49432 36.2387 5.96023C36.519 6.42235 36.7122 6.93561 36.8182 7.5H35.3637ZM39.6648 15.5V6.77273H41.0057V15.5H39.6648ZM40.3466 5.31818C40.0853 5.31818 39.8599 5.22917 39.6705 5.05114C39.4849 4.87311 39.3921 4.65909 39.3921 4.40909C39.3921 4.15909 39.4849 3.94508 39.6705 3.76705C39.8599 3.58902 40.0853 3.5 40.3466 3.5C40.608 3.5 40.8315 3.58902 41.0171 3.76705C41.2065 3.94508 41.3012 4.15909 41.3012 4.40909C41.3012 4.65909 41.2065 4.87311 41.0171 5.05114C40.8315 5.22917 40.608 5.31818 40.3466 5.31818ZM47.2571 6.77273V7.90909H42.7344V6.77273H47.2571ZM44.0526 4.68182H45.3935V13C45.3935 13.3788 45.4484 13.6629 45.5583 13.8523C45.6719 14.0379 45.8158 14.1629 45.9901 14.2273C46.1681 14.2879 46.3556 14.3182 46.5526 14.3182C46.7003 14.3182 46.8215 14.3106 46.9162 14.2955C47.0109 14.2765 47.0867 14.2614 47.1435 14.25L47.4162 15.4545C47.3253 15.4886 47.1984 15.5227 47.0355 15.5568C46.8727 15.5947 46.6662 15.6136 46.4162 15.6136C46.0374 15.6136 45.6662 15.5322 45.3026 15.3693C44.9427 15.2064 44.6435 14.9583 44.4049 14.625C44.17 14.2917 44.0526 13.8712 44.0526 13.3636V4.68182ZM49.6435 15.5V3.86364H51.0526V9.04545H57.2571V3.86364H58.6662V15.5H57.2571V10.2955H51.0526V15.5H49.6435ZM66.8054 11.9318V6.77273H68.1463V15.5H66.8054V14.0227H66.7145C66.51 14.4659 66.1918 14.8428 65.76 15.1534C65.3282 15.4602 64.7827 15.6136 64.1236 15.6136C63.5782 15.6136 63.0933 15.4943 62.6691 15.2557C62.2448 15.0133 61.9115 14.6496 61.6691 14.1648C61.4266 13.6761 61.3054 13.0606 61.3054 12.3182V6.77273H62.6463V12.2273C62.6463 12.8636 62.8244 13.3712 63.1804 13.75C63.5403 14.1288 63.9986 14.3182 64.5554 14.3182C64.8888 14.3182 65.2278 14.233 65.5725 14.0625C65.921 13.892 66.2126 13.6307 66.4475 13.2784C66.6861 12.9261 66.8054 12.4773 66.8054 11.9318ZM70.7841 15.5V3.86364H72.125V8.15909H72.2387C72.3372 8.00758 72.4735 7.81439 72.6478 7.57955C72.8258 7.34091 73.0796 7.12879 73.4091 6.94318C73.7425 6.75379 74.1932 6.65909 74.7614 6.65909C75.4962 6.65909 76.144 6.8428 76.7046 7.21023C77.2652 7.57765 77.7027 8.09848 78.0171 8.77273C78.3315 9.44697 78.4887 10.2424 78.4887 11.1591C78.4887 12.0833 78.3315 12.8845 78.0171 13.5625C77.7027 14.2367 77.2671 14.7595 76.7103 15.1307C76.1534 15.4981 75.5114 15.6818 74.7841 15.6818C74.2235 15.6818 73.7747 15.589 73.4375 15.4034C73.1004 15.214 72.8409 15 72.6591 14.7614C72.4773 14.5189 72.3372 14.3182 72.2387 14.1591H72.0796V15.5H70.7841ZM72.1023 11.1364C72.1023 11.7955 72.1989 12.3769 72.3921 12.8807C72.5853 13.3807 72.8675 13.7727 73.2387 14.0568C73.6099 14.3371 74.0644 14.4773 74.6023 14.4773C75.1629 14.4773 75.6307 14.3295 76.0057 14.0341C76.3845 13.7348 76.6686 13.3333 76.858 12.8295C77.0512 12.322 77.1478 11.7576 77.1478 11.1364C77.1478 10.5227 77.0531 9.9697 76.8637 9.47727C76.6781 8.98106 76.3959 8.58902 76.0171 8.30114C75.6421 8.00947 75.1705 7.86364 74.6023 7.86364C74.0568 7.86364 73.5985 8.00189 73.2273 8.27841C72.8561 8.55114 72.5758 8.93371 72.3864 9.42614C72.197 9.91477 72.1023 10.4848 72.1023 11.1364Z" fill="black"/>
</svg>
