<svg width="18" height="18" viewBox="0 0 18 18" fill="none" xmlns="http://www.w3.org/2000/svg">
<path d="M3.65256 17.34L9.00006 14.526L14.3476 17.337C14.3723 17.3499 14.4001 17.3557 14.4279 17.3537C14.4558 17.3517 14.4825 17.342 14.5051 17.3256C14.5277 17.3092 14.5452 17.2869 14.5558 17.2611C14.5664 17.2353 14.5696 17.207 14.5651 17.1795L13.5451 11.2245L17.8696 7.00801C17.8893 6.98849 17.9033 6.96385 17.9099 6.93684C17.9165 6.90984 17.9155 6.88153 17.9069 6.85509C17.8984 6.82864 17.8826 6.80509 17.8615 6.78707C17.8403 6.76904 17.8145 6.75725 17.7871 6.75301L11.8081 5.88301L9.13507 0.466514C9.12278 0.441153 9.1036 0.419765 9.07973 0.404799C9.05585 0.389834 9.02824 0.381897 9.00006 0.381897C8.97189 0.381897 8.94428 0.389834 8.9204 0.404799C8.89653 0.419765 8.87735 0.441153 8.86506 0.466514L6.19206 5.88451L0.213064 6.75451C0.185592 6.75875 0.159838 6.77054 0.138677 6.78856C0.117515 6.80659 0.101777 6.83014 0.093221 6.85659C0.0846644 6.88303 0.083625 6.91134 0.090219 6.93834C0.0968131 6.96535 0.110781 6.98999 0.130564 7.00951L4.45506 11.226L3.43356 17.181C3.42899 17.2085 3.43218 17.2368 3.44278 17.2626C3.45338 17.2884 3.47096 17.3107 3.49356 17.3271C3.51615 17.3435 3.54286 17.3532 3.57069 17.3552C3.59851 17.3572 3.62635 17.3514 3.65106 17.3385L3.65256 17.34Z" fill="#FFA500"/>
</svg>
