<svg width="22" height="21" viewBox="0 0 22 21" fill="none" xmlns="http://www.w3.org/2000/svg">
<path d="M11 16.5275L16.3475 19.3385C16.3722 19.3514 16.4001 19.3572 16.4279 19.3552C16.4557 19.3532 16.4824 19.3434 16.505 19.3271C16.5276 19.3107 16.5452 19.2884 16.5558 19.2626C16.5664 19.2368 16.5696 19.2085 16.565 19.181L15.545 13.226L19.8695 9.0095C19.8893 8.98997 19.9033 8.96533 19.9099 8.93832C19.9165 8.91132 19.9154 8.88302 19.9069 8.85657C19.8983 8.83012 19.8826 8.80657 19.8614 8.78855C19.8402 8.77052 19.8145 8.75873 19.787 8.7545L13.808 7.8845L11.135 2.4665C11.1227 2.44114 11.1036 2.41975 11.0797 2.40478C11.0558 2.38982 11.0282 2.38188 11 2.38188C10.9718 2.38188 10.9442 2.38982 10.9204 2.40478C10.8965 2.41975 10.8773 2.44114 10.865 2.4665L8.19202 7.8845L2.21302 8.7545C2.18554 8.75873 2.15979 8.77052 2.13863 8.78855C2.11747 8.80657 2.10173 8.83012 2.09317 8.85657C2.08462 8.88302 2.08358 8.91132 2.09017 8.93832C2.09677 8.96533 2.11073 8.98997 2.13052 9.0095L6.45502 13.226L5.43352 19.181C5.42894 19.2085 5.43214 19.2368 5.44273 19.2626C5.45333 19.2884 5.47092 19.3107 5.49351 19.3271C5.51611 19.3434 5.54281 19.3532 5.57064 19.3552C5.59846 19.3572 5.6263 19.3514 5.65102 19.3385L11 16.5275ZM6.35002 20.6675C6.07745 20.8108 5.77023 20.875 5.46309 20.8527C5.15596 20.8305 4.86117 20.7228 4.61208 20.5418C4.36298 20.3607 4.16952 20.1136 4.05358 19.8283C3.93764 19.543 3.90384 19.231 3.95602 18.9275L4.84402 13.7495L1.08502 10.085C0.864653 9.87004 0.708818 9.59773 0.635129 9.29884C0.561439 8.99994 0.572834 8.6864 0.668026 8.39365C0.763217 8.1009 0.938409 7.84061 1.17379 7.64222C1.40918 7.44383 1.69537 7.31524 2.00002 7.271L7.19752 6.515L9.52252 1.805C9.6589 1.52924 9.86967 1.2971 10.131 1.13479C10.3924 0.972484 10.6939 0.886475 11.0015 0.886475C11.3092 0.886475 11.6107 0.972484 11.872 1.13479C12.1334 1.2971 12.3441 1.52924 12.4805 1.805L14.8055 6.515L20.0045 7.271C20.3092 7.31524 20.5954 7.44383 20.8307 7.64222C21.0661 7.84061 21.2413 8.1009 21.3365 8.39365C21.4317 8.6864 21.4431 8.99994 21.3694 9.29884C21.2957 9.59773 21.1399 9.87004 20.9195 10.085L17.1575 13.751L18.0455 18.929C18.0977 19.2325 18.0639 19.5445 17.948 19.8298C17.832 20.1151 17.6385 20.3622 17.3895 20.5433C17.1404 20.7243 16.8456 20.832 16.5384 20.8542C16.2313 20.8765 15.9241 20.8123 15.6515 20.669L11 18.221L6.35002 20.666V20.6675Z" fill="#FFA500"/>
</svg>
